<?xml version="1.0" standalone="no"?>
<svg xmlns:xlink="http://www.w3.org/1999/xlink" id="wave" style="transform:rotate(0deg); transition: 0.3s" viewBox="0 0 1440 490" version="1.1" xmlns="http://www.w3.org/2000/svg"><defs><linearGradient id="sw-gradient-0" x1="0" x2="0" y1="1" y2="0"><stop stop-color="rgba(202.954, 202.954, 202.954, 1)" offset="0%"/><stop stop-color="rgba(93.668, 88.634, 77.506, 1)" offset="100%"/></linearGradient></defs><path style="transform:translate(0, 0px); opacity:1" fill="url(#sw-gradient-0)" d="M0,147L60,187.8C120,229,240,310,360,334.8C480,359,600,327,720,261.3C840,196,960,98,1080,98C1200,98,1320,196,1440,245C1560,294,1680,294,1800,277.7C1920,261,2040,229,2160,253.2C2280,278,2400,359,2520,375.7C2640,392,2760,343,2880,318.5C3000,294,3120,294,3240,261.3C3360,229,3480,163,3600,155.2C3720,147,3840,196,3960,204.2C4080,212,4200,180,4320,138.8C4440,98,4560,49,4680,49C4800,49,4920,98,5040,106.2C5160,114,5280,82,5400,98C5520,114,5640,180,5760,196C5880,212,6000,180,6120,147C6240,114,6360,82,6480,98C6600,114,6720,180,6840,204.2C6960,229,7080,212,7200,196C7320,180,7440,163,7560,155.2C7680,147,7800,147,7920,163.3C8040,180,8160,212,8280,212.3C8400,212,8520,180,8580,163.3L8640,147L8640,490L8580,490C8520,490,8400,490,8280,490C8160,490,8040,490,7920,490C7800,490,7680,490,7560,490C7440,490,7320,490,7200,490C7080,490,6960,490,6840,490C6720,490,6600,490,6480,490C6360,490,6240,490,6120,490C6000,490,5880,490,5760,490C5640,490,5520,490,5400,490C5280,490,5160,490,5040,490C4920,490,4800,490,4680,490C4560,490,4440,490,4320,490C4200,490,4080,490,3960,490C3840,490,3720,490,3600,490C3480,490,3360,490,3240,490C3120,490,3000,490,2880,490C2760,490,2640,490,2520,490C2400,490,2280,490,2160,490C2040,490,1920,490,1800,490C1680,490,1560,490,1440,490C1320,490,1200,490,1080,490C960,490,840,490,720,490C600,490,480,490,360,490C240,490,120,490,60,490L0,490Z"/><defs><linearGradient id="sw-gradient-1" x1="0" x2="0" y1="1" y2="0"><stop stop-color="rgba(143.758, 142.798, 142.49, 1)" offset="0%"/><stop stop-color="rgba(123.267, 123.267, 123.267, 1)" offset="100%"/></linearGradient></defs><path style="transform:translate(0, 50px); opacity:0.9" fill="url(#sw-gradient-1)" d="M0,294L60,318.5C120,343,240,392,360,400.2C480,408,600,376,720,334.8C840,294,960,245,1080,187.8C1200,131,1320,65,1440,89.8C1560,114,1680,229,1800,228.7C1920,229,2040,114,2160,130.7C2280,147,2400,294,2520,310.3C2640,327,2760,212,2880,196C3000,180,3120,261,3240,269.5C3360,278,3480,212,3600,228.7C3720,245,3840,343,3960,359.3C4080,376,4200,310,4320,236.8C4440,163,4560,82,4680,49C4800,16,4920,33,5040,40.8C5160,49,5280,49,5400,49C5520,49,5640,49,5760,73.5C5880,98,6000,147,6120,196C6240,245,6360,294,6480,302.2C6600,310,6720,278,6840,294C6960,310,7080,376,7200,408.3C7320,441,7440,441,7560,383.8C7680,327,7800,212,7920,171.5C8040,131,8160,163,8280,147C8400,131,8520,65,8580,32.7L8640,0L8640,490L8580,490C8520,490,8400,490,8280,490C8160,490,8040,490,7920,490C7800,490,7680,490,7560,490C7440,490,7320,490,7200,490C7080,490,6960,490,6840,490C6720,490,6600,490,6480,490C6360,490,6240,490,6120,490C6000,490,5880,490,5760,490C5640,490,5520,490,5400,490C5280,490,5160,490,5040,490C4920,490,4800,490,4680,490C4560,490,4440,490,4320,490C4200,490,4080,490,3960,490C3840,490,3720,490,3600,490C3480,490,3360,490,3240,490C3120,490,3000,490,2880,490C2760,490,2640,490,2520,490C2400,490,2280,490,2160,490C2040,490,1920,490,1800,490C1680,490,1560,490,1440,490C1320,490,1200,490,1080,490C960,490,840,490,720,490C600,490,480,490,360,490C240,490,120,490,60,490L0,490Z"/></svg>